<svg width="12" height="12" viewBox="0 0 12 12" fill="none" xmlns="http://www.w3.org/2000/svg">
<path d="M4.19995 8.99973V4.59973H5.39995V8.99973H4.19995Z" fill="black" fill-opacity="0.9"/>
<path d="M6.6001 8.99973V4.59973H7.8001V8.99973H6.6001Z" fill="black" fill-opacity="0.9"/>
<path fill-rule="evenodd" clip-rule="evenodd" d="M8.29692 2.19934H10.5999V3.39934H9.99988V9.60014C9.99988 10.5942 9.19399 11.4001 8.19988 11.4001H3.79988C2.80576 11.4001 1.99988 10.5942 1.99988 9.60014V3.39934H1.3999V2.19934H3.70274C3.75463 1.30713 4.49461 0.599609 5.39983 0.599609H6.59983C7.50505 0.599609 8.24503 1.30713 8.29692 2.19934ZM4.70696 2.19934H7.2927C7.24406 1.86024 6.95238 1.59961 6.59983 1.59961H5.39983C5.04728 1.59961 4.7556 1.86024 4.70696 2.19934ZM3.19988 3.39934H8.79988V9.60014C8.79988 9.93151 8.53125 10.2001 8.19988 10.2001H3.79988C3.46851 10.2001 3.19988 9.93151 3.19988 9.60014V3.39934Z" fill="black" fill-opacity="0.9"/>
</svg>
